<svg width="50" height="57" viewBox="0 0 50 57" fill="none" xmlns="http://www.w3.org/2000/svg">
<path d="M48.5144 27.9626L40.2727 36.2043L35.5691 31.4922L39.124 27.9626C39.4069 27.6321 39.3878 27.1398 39.0801 26.8321C38.7727 26.5248 38.2805 26.5057 37.95 26.7886L34.3871 30.3101L32.0391 27.9541L40.2727 19.7123C40.5955 19.3876 40.5955 18.8632 40.2727 18.5384C39.9479 18.2156 39.4235 18.2156 39.0988 18.5384L30.266 27.3715C30.1083 27.5276 30.0197 27.7406 30.0197 27.9626C30.0197 28.1845 30.1083 28.3971 30.266 28.5536L31.4481 29.7272L30.266 30.9097C28.8685 29.5109 26.6799 29.2882 25.0295 30.3768L24.3803 29.7272C23.6003 28.9492 22.5434 28.5122 21.4414 28.5118C20.9207 28.5118 20.404 28.6077 19.9178 28.7951L18.4943 27.3715L19.0853 26.7886C19.243 26.6321 19.3317 26.4195 19.3317 26.1976C19.3317 25.9756 19.243 25.7626 19.0853 25.6065L10.8188 17.3648C10.4924 17.0404 9.96477 17.0425 9.64079 17.3689C9.31641 17.6953 9.31844 18.2225 9.64486 18.5469L17.2955 26.1976L16.7045 26.7801L12.542 30.9011L9.60339 27.9541C9.44689 27.7963 9.23429 27.7077 9.01235 27.7077C8.7904 27.7077 8.5774 27.7963 8.4213 27.9541C8.09814 28.2788 8.09814 28.8032 8.4213 29.128L11.368 32.0751L10.1859 33.2487L9.07861 34.4726L1.42794 26.7886C1.27185 26.6309 1.05884 26.5423 0.836898 26.5423C0.614951 26.5423 0.402354 26.6309 0.245853 26.7886C-0.0769053 27.1134 -0.0769053 27.6378 0.245853 27.9626L8.48756 36.2043C8.64488 36.36 8.85747 36.447 9.07861 36.4458C9.30015 36.447 9.51274 36.36 9.67006 36.2043L10.8188 35.0303L11.9924 36.2043C10.3676 37.8299 10.3676 40.4644 11.9924 42.09L13.5578 43.6302C13.7139 43.7879 13.9269 43.8765 14.1488 43.8765C14.3708 43.8765 14.5834 43.7879 14.7399 43.6302C15.0626 43.3054 15.0626 42.781 14.7399 42.4562L13.1997 40.9164C12.7293 40.4477 12.4651 39.8111 12.4651 39.1473C12.4651 38.4831 12.7293 37.8465 13.1997 37.3783L13.7826 36.7953L19.6764 30.9011C20.6658 29.9625 22.217 29.9625 23.2064 30.9011L28.501 36.1958C28.7839 36.5262 28.7648 37.0185 28.4575 37.3262C28.1498 37.6335 27.6575 37.6526 27.3274 37.3697L23.4893 33.532C23.1609 33.2056 22.6296 33.2072 22.3031 33.5361C21.9767 33.8649 21.9784 34.3958 22.3072 34.7222L26.1449 38.5603C26.8587 39.2794 27.936 39.4965 28.8721 39.1095C29.8087 38.7225 30.4184 37.8083 30.416 36.7953C30.4152 36.1332 30.1518 35.4982 29.6831 35.0303L26.2535 31.6003C27.2096 31.167 28.3331 31.358 29.092 32.0832L36.1602 39.1514C36.6256 39.6205 36.8862 40.2554 36.8846 40.9164C36.8862 41.5774 36.6256 42.2119 36.1602 42.681L33.8041 45.0371L31.39 47.4431L29.6831 49.1581L24.9714 53.8698C24.6466 54.1926 24.1222 54.1926 23.7974 53.8698C23.4747 53.5454 23.4747 53.021 23.7974 52.6963L29.1339 47.3846C29.3713 47.1813 29.475 46.8618 29.4018 46.5578C29.3286 46.2537 29.0912 46.0163 28.7872 45.9431C28.4827 45.87 28.1636 45.9732 27.9599 46.211L22.6568 51.5056C22.3267 51.7885 21.8345 51.7694 21.5267 51.4621C21.2194 51.1544 21.2003 50.6621 21.4832 50.3317L26.7779 45.0371C26.9356 44.881 27.0242 44.668 27.0242 44.446C27.0242 44.2241 26.9356 44.0115 26.7779 43.855C26.4531 43.5322 25.9287 43.5322 25.6039 43.855L20.3007 49.1581C19.9764 49.4809 19.452 49.4809 19.1272 49.1581C18.9695 49.0016 18.8809 48.789 18.8809 48.5671C18.8809 48.3451 18.9695 48.1321 19.1272 47.976L24.4218 42.681C24.5795 42.5249 24.6681 42.3119 24.6681 42.09C24.6681 41.868 24.5795 41.6554 24.4218 41.4989C24.097 41.1761 23.5726 41.1761 23.2478 41.4989L17.9451 46.8021C17.6187 47.126 17.0911 47.1244 16.7671 46.798C16.4427 46.4716 16.4447 45.9439 16.7711 45.62L23.173 39.2262C23.4995 38.8998 23.4995 38.3705 23.173 38.0441C22.8466 37.7177 22.3174 37.7177 21.991 38.0441L15.5557 44.4627C14.5818 45.4379 14.5818 47.0175 15.5557 47.9927C15.9858 48.4317 16.565 48.6935 17.1789 48.7252C17.2532 49.9926 18.267 51.0028 19.5349 51.0727C19.6052 52.3438 20.6203 53.3584 21.891 53.4288C21.9149 54.0548 22.1735 54.6495 22.6153 55.0938C23.3657 55.8425 24.5072 56.0364 25.4624 55.5767L26.1449 56.2677C26.8461 56.9693 27.8965 57.1897 28.8209 56.8287C29.7449 56.4677 30.3676 55.5942 30.4075 54.6027C31.0347 54.5836 31.631 54.3243 32.0725 53.8783C32.505 53.4442 32.7627 52.8666 32.7968 52.2548C34.068 52.1849 35.0826 51.1699 35.1529 49.8987C36.1443 49.8593 37.0179 49.2362 37.3789 48.3122C37.7402 47.3878 37.5199 46.3378 36.8179 45.6366L36.2269 45.0537L37.4089 43.8716C38.187 43.0916 38.624 42.0347 38.6244 40.9327C38.6049 40.1087 38.341 39.3091 37.8667 38.6351L39.124 37.3783L39.715 37.9693C40.0398 38.2921 40.5642 38.2921 40.889 37.9693L49.6965 29.1361C50.0193 28.8118 50.0193 28.287 49.6965 27.9626C49.5404 27.8049 49.3274 27.7163 49.1055 27.7163C48.8835 27.7163 48.6709 27.8049 48.5144 27.9626ZM12.0176 33.8482L17.3207 28.5536L18.4943 29.7272L13.1997 35.0303L12.0176 33.8482ZM28.501 55.0438C28.1762 55.3665 27.6518 55.3665 27.3274 55.0438L26.7364 54.4527L27.9185 53.2788L28.501 53.8617C28.6587 54.0178 28.7473 54.2308 28.7473 54.4527C28.7473 54.6747 28.6587 54.8877 28.501 55.0438ZM30.857 52.6877C30.5323 53.0105 30.0079 53.0105 29.6831 52.6877L29.1339 52.0967L29.725 51.5056L30.3075 50.9227L30.8989 51.5056C31.0562 51.6621 31.1448 51.8747 31.1448 52.0967C31.1448 52.3186 31.0562 52.5316 30.8989 52.6877H30.857ZM33.2131 50.3317C32.8883 50.6544 32.3639 50.6544 32.0391 50.3317L31.4481 49.7406L32.622 48.5671L33.2131 49.1581C33.5359 49.4829 33.5359 50.0073 33.2131 50.3317ZM35.5691 47.976C35.4126 48.1333 35.2 48.2219 34.9781 48.2219C34.7562 48.2219 34.5431 48.1333 34.3871 47.976L33.8041 47.3846L34.9614 46.211L35.5525 46.8021C35.8797 47.122 35.8874 47.6468 35.5691 47.976ZM36.7427 37.3783L31.4481 32.0832L32.622 30.9097L37.9252 36.2043L36.7427 37.3783Z" fill="#FFBB01"/>
<path d="M15.8139 20.3201H34.129C34.5888 20.3201 34.9615 19.9473 34.9615 19.4876V7.8325C34.9615 7.37276 34.5888 7 34.129 7H15.8139C15.3542 7 14.9814 7.37276 14.9814 7.8325V19.4876C14.9814 19.9473 15.3542 20.3201 15.8139 20.3201ZM16.6465 16.99C17.5659 16.99 18.3115 17.7356 18.3115 18.6551H16.6465V16.99ZM33.2965 18.6551H31.6315C31.6315 17.7356 32.377 16.99 33.2965 16.99V18.6551ZM33.2965 10.33C32.377 10.33 31.6315 9.5845 31.6315 8.66501H33.2965V10.33ZM33.2965 11.995V15.325C31.4571 15.325 29.9665 16.8161 29.9665 18.6551H19.9765C19.9765 16.8161 18.4854 15.325 16.6465 15.325V11.995C18.4854 11.995 19.9765 10.504 19.9765 8.66501H29.9665C29.9665 10.504 31.4571 11.995 33.2965 11.995ZM16.6465 8.66501H18.3115C18.3115 9.5845 17.5659 10.33 16.6465 10.33V8.66501Z" fill="#FFBB01"/>
<path d="M14.9713 6.99005C16.8102 6.99005 18.3013 5.49902 18.3013 3.66003C18.3013 1.82104 16.8102 0.330017 14.9713 0.330017C13.1319 0.330017 11.6412 1.82104 11.6412 3.66003C11.6412 5.49902 13.1319 6.99005 14.9713 6.99005ZM14.9713 1.99503C15.8907 1.99503 16.6363 2.74054 16.6363 3.66003C16.6363 4.57953 15.8907 5.32504 14.9713 5.32504C14.0518 5.32504 13.3062 4.57953 13.3062 3.66003C13.3062 2.74054 14.0518 1.99503 14.9713 1.99503Z" fill="#FFBB01"/>
<path d="M21.6313 3.66002C21.6313 4.11977 21.2586 4.49252 20.7988 4.49252C20.3391 4.49252 19.9663 4.11977 19.9663 3.66002C19.9663 3.20027 20.3391 2.82751 20.7988 2.82751C21.2586 2.82751 21.6313 3.20027 21.6313 3.66002Z" fill="#FFBB01"/>
<path d="M9.97628 3.66002C9.97628 4.11977 9.60352 4.49252 9.14378 4.49252C8.68403 4.49252 8.31128 4.11977 8.31128 3.66002C8.31128 3.20027 8.68403 2.82751 9.14378 2.82751C9.60352 2.82751 9.97628 3.20027 9.97628 3.66002Z" fill="#FFBB01"/>
<path d="M39.805 12.3698L36.475 7.37476C36.3202 7.14427 36.0612 7.00647 35.784 7.00647C35.5068 7.00647 35.2474 7.14427 35.0929 7.37476L31.7629 12.3698C31.6719 12.5051 31.6227 12.6645 31.6215 12.8275V16.1575C31.6215 16.6173 31.9942 16.99 32.454 16.99C32.9137 16.99 33.2865 16.6173 33.2865 16.1575V13.0771L35.784 9.33081L38.2815 13.0771V21.985C38.2815 22.4448 38.6543 22.8175 39.114 22.8175C39.5738 22.8175 39.9465 22.4448 39.9465 21.985V12.8275C39.9453 12.6645 39.8961 12.5051 39.805 12.3698Z" fill="#FFBB01"/>
<path d="M36.6166 18.655V13.66C36.6166 13.2003 36.2438 12.8275 35.784 12.8275C35.3243 12.8275 34.9515 13.2003 34.9515 13.66V18.655C34.9515 19.1148 35.3243 19.4875 35.784 19.4875C36.2438 19.4875 36.6166 19.1148 36.6166 18.655Z" fill="#FFBB01"/>
<path d="M0.828736 14.4926H1.66124V24.4826C1.66124 24.9424 2.034 25.3151 2.49374 25.3151C2.95349 25.3151 3.32625 24.9424 3.32625 24.4826V13.6601C3.32625 13.2003 2.95349 12.8276 2.49374 12.8276H2.44375L4.99126 9.26462L7.53877 12.8276H7.48877C7.02902 12.8276 6.65626 13.2003 6.65626 13.6601V15.3251C6.65626 15.7848 7.02902 16.1576 7.48877 16.1576C7.94852 16.1576 8.32127 15.7848 8.32127 15.3251V14.4926H9.15378C9.46475 14.4909 9.74889 14.3165 9.89075 14.0397C10.0326 13.7633 10.0082 13.4304 9.82815 13.1771L5.66563 7.34961C5.50873 7.13336 5.25832 7.00531 4.99126 7.00531C4.72419 7.00531 4.47338 7.13336 4.31688 7.34961L0.154359 13.1771C-0.0261248 13.4304 -0.0501081 13.7633 0.0917591 14.0397C0.233626 14.3165 0.517767 14.4909 0.828736 14.4926Z" fill="#FFBB01"/>
<path d="M4.99121 18.6551V21.1526C4.99121 21.6123 5.36397 21.9851 5.82372 21.9851C6.28346 21.9851 6.65622 21.6123 6.65622 21.1526V18.6551C6.65622 18.1953 6.28346 17.8226 5.82372 17.8226C5.36397 17.8226 4.99121 18.1953 4.99121 18.6551Z" fill="#FFBB01"/>
</svg>
