<svg width="53" height="55" viewBox="0 0 53 55" fill="none" xmlns="http://www.w3.org/2000/svg">
<path d="M52.9035 16.8519C52.7314 16.212 52.3116 15.6664 51.7371 15.3357C51.1623 15.0033 50.4788 14.9134 49.8376 15.0855C49.1973 15.258 48.6517 15.6774 48.3209 16.2519L47.9043 16.9768C47.5085 16.7494 47.0028 16.8833 46.7713 17.2771L44.655 20.8845L43.93 20.4679C43.738 20.3568 43.5093 20.3267 43.2953 20.3845C43.0809 20.4426 42.8987 20.5834 42.7884 20.7762C42.5626 21.1745 42.7002 21.6806 43.0968 21.9093L43.8218 22.3259L36.7397 34.5988L34.9899 39.2733L34.1567 40.831C33.6689 41.6797 33.721 42.7346 34.2901 43.5308L32.4154 45.8302L31.8906 44.5141C31.6539 43.9274 31.1059 43.5255 30.4757 43.4762C29.8451 43.4266 29.2409 43.7382 28.9159 44.2805L28.616 44.7887L28.3329 41.4559C28.2678 40.6675 27.6571 40.0336 26.872 39.9384C26.0864 39.8436 25.3427 40.3143 25.0917 41.0645L23.042 47.2134C22.8988 47.6483 23.1332 48.117 23.5669 48.2634C23.6482 48.3013 23.7357 48.324 23.8252 48.3297C24.1832 48.331 24.5022 48.1027 24.6169 47.7634L26.658 41.6146L26.9497 44.997C27.0099 45.7187 27.5286 46.3188 28.234 46.4823C28.9395 46.6459 29.6693 46.335 30.0408 45.7138L30.3491 45.2053L30.8658 46.5136C31.0851 47.0649 31.581 47.4583 32.1681 47.5458C32.7552 47.6332 33.3442 47.4018 33.7153 46.9384L35.6567 44.4807C35.8715 44.5368 36.0928 44.5649 36.3149 44.5641C37.2079 44.571 38.037 44.1007 38.4894 43.3306L39.3226 41.9392L42.4971 38.0816L49.6541 25.6586L50.3791 26.0752C50.5723 26.1859 50.7131 26.3686 50.7705 26.5838C50.8282 26.7974 50.7981 27.0252 50.6875 27.2168L47.3547 32.991C47.229 33.1805 47.1863 33.4133 47.2367 33.6354C47.2872 33.8571 47.4259 34.0487 47.6212 34.1655C47.8132 34.277 48.0419 34.3071 48.2558 34.2493C48.4702 34.1911 48.6525 34.0504 48.7628 33.8575L52.0955 28.0833C52.4279 27.5085 52.5178 26.825 52.3453 26.1839C52.1728 25.5435 51.7534 24.9979 51.1789 24.6672L50.454 24.2506L52.5369 20.6428C52.7644 20.247 52.6305 19.7417 52.2371 19.5098L52.6537 18.7848C52.995 18.201 53.0853 17.5037 52.9035 16.8519ZM49.7623 17.0851C49.8726 16.8922 50.0557 16.751 50.2709 16.6937C50.4849 16.6408 50.7111 16.6705 50.9039 16.7771C51.0972 16.8873 51.2379 17.0704 51.2957 17.2852C51.3486 17.4992 51.3189 17.7254 51.2123 17.9182L50.7957 18.6432L49.3458 17.81L49.7623 17.0851ZM38.406 40.3481L37.9894 40.1064L36.7563 39.3896L37.9394 36.2236L40.5639 37.7399L38.406 40.3481ZM35.9065 42.7557C35.5546 42.5104 35.4463 42.0385 35.6567 41.6642L36.0733 40.9396L37.5228 41.7728L37.1062 42.4893C36.9895 42.6919 36.7934 42.8359 36.5651 42.8867C36.3369 42.9372 36.0981 42.89 35.9065 42.7557ZM41.5138 36.3738L38.631 34.7074L45.2966 23.1591L48.1794 24.8254L41.5138 36.3738ZM49.0126 23.384L46.1297 21.7177L47.7961 18.8348L50.6789 20.5012L49.0126 23.384Z" fill="#FFBB01"/>
<path d="M16.1476 32.3436L13.1985 35.285L11.432 33.5186C11.107 33.1955 10.5822 33.1955 10.2571 33.5186C10.0992 33.6752 10.0106 33.888 10.0106 34.1101C10.0106 34.3322 10.0992 34.5454 10.2571 34.7016L12.0236 36.4681C12.336 36.7781 12.7583 36.9518 13.1985 36.9514C13.6411 36.9538 14.0671 36.7801 14.3816 36.4681L17.3225 33.5186C17.6057 33.1878 17.5866 32.6951 17.279 32.3876C16.971 32.0796 16.4784 32.0605 16.1476 32.3436Z" fill="#FFBB01"/>
<path d="M6.33282 34.585C6.33282 38.4966 9.50367 41.6671 13.415 41.6671C17.3262 41.6671 20.4971 38.4966 20.4971 34.585C20.4971 34.1248 20.124 33.7518 19.6639 33.7518C19.2038 33.7518 18.8307 34.1248 18.8307 34.585C18.8307 37.576 16.406 40.0007 13.415 40.0007C10.4239 40.0007 7.99921 37.576 7.99921 34.585C7.99921 31.5939 10.4239 29.1692 13.415 29.1692C14.5874 29.166 15.7286 29.5463 16.6643 30.2526C17.0325 30.5288 17.5549 30.454 17.8307 30.0858C18.1069 29.7176 18.0325 29.1957 17.6643 28.9194C15.5183 27.31 12.6469 27.0512 10.2478 28.2506C7.84827 29.4503 6.33282 31.9027 6.33282 34.585Z" fill="#FFBB01"/>
<path d="M22.9948 1.67383C23.455 1.67383 23.828 1.30117 23.828 0.840638C23.828 0.380511 23.455 0.00744629 22.9948 0.00744629H1.33185C0.871722 0.00744629 0.498657 0.380511 0.498657 0.840638V4.1734C0.498657 4.63394 0.871722 5.00659 1.33185 5.00659H22.9948C23.455 5.00659 23.828 4.63394 23.828 4.1734C23.828 3.71328 23.455 3.34021 22.9948 3.34021H2.16504V1.67383H22.9948Z" fill="#FFBB01"/>
<path d="M13.8315 16.673C13.3714 16.673 12.9983 17.0461 12.9983 17.5062C12.9983 17.9668 13.3714 18.3394 13.8315 18.3394H30.4953C30.9554 18.3394 31.3285 17.9668 31.3285 17.5062C31.3285 17.0461 30.9554 16.673 30.4953 16.673H13.8315Z" fill="#FFBB01"/>
<path d="M35.4945 22.5053H17.1643C16.7042 22.5053 16.3311 22.8784 16.3311 23.3385C16.3311 23.799 16.7042 24.1717 17.1643 24.1717H35.4945C35.9546 24.1717 36.3277 23.799 36.3277 23.3385C36.3277 22.8784 35.9546 22.5053 35.4945 22.5053Z" fill="#FFBB01"/>
<path d="M27.1625 18.3377C27.1625 17.8776 26.7895 17.5045 26.3294 17.5045H9.66553C9.2054 17.5045 8.83234 17.8776 8.83234 18.3377C8.83234 18.7982 9.2054 19.1709 9.66553 19.1709H26.3294C26.7895 19.1709 27.1625 18.7982 27.1625 18.3377Z" fill="#FFBB01"/>
<path d="M35.4944 17.5045H29.6621C29.202 17.5045 28.8289 17.8776 28.8289 18.3377C28.8289 18.7982 29.202 19.1709 29.6621 19.1709H35.4944C35.9546 19.1709 36.3276 18.7982 36.3276 18.3377C36.3276 17.8776 35.9546 17.5045 35.4944 17.5045Z" fill="#FFBB01"/>
<path d="M17.9974 23.3368C18.4576 23.3368 18.8306 22.9642 18.8306 22.5037C18.8306 22.0435 18.4576 21.6705 17.9974 21.6705H9.66553C9.2054 21.6705 8.83234 22.0435 8.83234 22.5037C8.83234 22.9642 9.2054 23.3368 9.66553 23.3368H17.9974Z" fill="#FFBB01"/>
<path d="M21.3301 23.3368H27.1625C27.6226 23.3368 27.9957 22.9642 27.9957 22.5037C27.9957 22.0435 27.6226 21.6705 27.1625 21.6705H21.3301C20.87 21.6705 20.4969 22.0435 20.4969 22.5037C20.4969 22.9642 20.87 23.3368 21.3301 23.3368Z" fill="#FFBB01"/>
<path d="M40.4936 43.3352C40.0335 43.3352 39.6604 43.7082 39.6604 44.1684V52.5003C39.6604 52.9608 39.2874 53.3335 38.8272 53.3335H5.49957C5.03945 53.3335 4.66638 52.9608 4.66638 52.5003V7.50794C4.66638 7.04781 5.03945 6.67474 5.49957 6.67474H38.8272C39.2874 6.67474 39.6604 7.04781 39.6604 7.50794V23.1555C39.6604 23.6156 40.0335 23.9887 40.4936 23.9887C40.9537 23.9887 41.3268 23.6156 41.3268 23.1555V7.50794C41.3268 6.12756 40.2076 5.00836 38.8272 5.00836H5.49957C4.11919 5.00836 3 6.12756 3 7.50794V52.5003C3 53.8811 4.11919 54.9998 5.49957 54.9998H38.8272C40.2076 54.9998 41.3268 53.8811 41.3268 52.5003V44.1684C41.3268 43.7082 40.9537 43.3352 40.4936 43.3352Z" fill="#FFBB01"/>
</svg>
